<?xml version="1.0" encoding="UTF-8"?>
<svg width="60px" height="60px" viewBox="0 0 60 60" version="1.1" xmlns="http://www.w3.org/2000/svg" xmlns:xlink="http://www.w3.org/1999/xlink">
    <!-- Generator: sketchtool 52.4 (67378) - http://www.bohemiancoding.com/sketch -->
    <title>E8074635-4360-4919-97C3-B64183DAEC0F</title>
    <desc>Created with sketchtool.</desc>
    <g id="Home-Page" stroke="none" stroke-width="1" fill="none" fill-rule="evenodd">
        <g id="T001_HomePage_State3_Desktop" transform="translate(-599.000000, -2091.000000)">
            <g id="explore-our-products" transform="translate(0.000000, 1702.000000)">
                <g id="products" transform="translate(42.000000, 87.000000)">
                    <g id="loan-against-property" transform="translate(470.000000, 290.000000)">
                        <g id="icon" transform="translate(87.000000, 12.000000)">
                            <rect id="Rectangle-15" x="0" y="5" width="60" height="60"></rect>
                            <g id="Group-6" transform="translate(4.000000, 1.000000)" fill-rule="nonzero" stroke="#333333" stroke-width="2">
                                <g id="Group-5">
                                    <path d="M23.8432356,17.2179178 C26.7648819,19.8525712 27.2056582,12.4470815 24.8982735,10.4545234 C22.5908888,8.46196533 20.5886517,8.52835124 20.5886517,10.9538235 C20.5886517,13.3792958 20.9215892,14.5832643 23.8432356,17.2179178 Z" id="Path-10"></path>
                                    <path d="M26.6124663,9.8528384 C29.5341127,12.4874919 29.974889,5.08200217 27.6675043,3.08944407 C25.3601195,1.09688596 23.3578825,1.16327188 23.3578825,3.58874418 C23.3578825,6.01421648 23.69082,7.21818494 26.6124663,9.8528384 Z" id="Path-10" transform="translate(26.249386, 6.044247) rotate(28.000000) translate(-26.249386, -6.044247) "></path>
                                    <path d="M28.3721297,17.2179178 C25.4504834,19.8525712 25.0097071,12.4470815 27.3170918,10.4545234 C29.6244765,8.46196533 31.6267136,8.52835124 31.6267136,10.9538235 C31.6267136,13.3792958 31.2937761,14.5832643 28.3721297,17.2179178 Z" id="Path-10"></path>
                                    <path d="M23.8432356,25.2282414 C26.7648819,27.8628948 27.2056582,20.4574052 24.8982735,18.464847 C22.5908888,16.4722889 20.5886517,16.5386749 20.5886517,18.9641472 C20.5886517,21.3896195 20.9215892,22.5935879 23.8432356,25.2282414 Z" id="Path-10"></path>
                                    <path d="M28.3721297,25.2282414 C25.4504834,27.8628948 25.0097071,20.4574052 27.3170918,18.464847 C29.6244765,16.4722889 31.6267136,16.5386749 31.6267136,18.9641472 C31.6267136,21.3896195 31.2937761,22.5935879 28.3721297,25.2282414 Z" id="Path-10"></path>
                                    <path d="M23.8432356,33.238565 C26.7648819,35.8732185 27.2056582,28.4677288 24.8982735,26.4751707 C22.5908888,24.4826126 20.5886517,24.5489985 20.5886517,26.9744708 C20.5886517,29.3999431 20.9215892,30.6039115 23.8432356,33.238565 Z" id="Path-10"></path>
                                    <path d="M28.3721297,33.238565 C25.4504834,35.8732185 25.0097071,28.4677288 27.3170918,26.4751707 C29.6244765,24.4826126 31.6267136,24.5489985 31.6267136,26.9744708 C31.6267136,29.3999431 31.2937761,30.6039115 28.3721297,33.238565 Z" id="Path-10"></path>
                                    <path d="M26.4615385,11.047619 L26.4615385,57.7532873" id="Path-11"></path>
                                    <path d="M26.270148,56.1176268 C27.5849251,44.0288726 30.834485,37.9844954 36.0188278,37.9844954 C43.7953419,37.9844954 41.7064694,48.4268193 46.5625738,45.4412178 C51.4186782,42.4556162 52.1936854,43.5378911 50.1905196,45.4412178 C48.1873537,47.3445445 45.3430018,52.9521653 38.7447643,47.1159047 C34.3459392,43.2250642 30.1877338,46.2256383 26.270148,56.1176268 Z" id="Path-13" fill="#D7DF23" stroke-linecap="round" stroke-linejoin="round" transform="translate(38.744764, 47.051061) rotate(-2.000000) translate(-38.744764, -47.051061) "></path>
                                    <path d="M1.27014804,56.1176268 C2.58492509,44.0288726 5.83448499,37.9844954 11.0188278,37.9844954 C18.7953419,37.9844954 16.7064694,48.4268193 21.5625738,45.4412178 C26.4186782,42.4556162 27.1936854,43.5378911 25.1905196,45.4412178 C23.1873537,47.3445445 20.3430018,52.9521653 13.7447643,47.1159047 C9.34593923,43.2250642 5.18773383,46.2256383 1.27014804,56.1176268 Z" id="Path-13" fill="#D7DF23" stroke-linecap="round" stroke-linejoin="round" transform="translate(13.744764, 47.051061) scale(-1, 1) rotate(-2.000000) translate(-13.744764, -47.051061) "></path>
                                </g>
                            </g>
                        </g>
                    </g>
                </g>
            </g>
        </g>
    </g>
</svg>