<?xml version="1.0" encoding="UTF-8"?>
<svg width="60px" height="60px" viewBox="0 0 60 60" version="1.1" xmlns="http://www.w3.org/2000/svg" xmlns:xlink="http://www.w3.org/1999/xlink">
    <!-- Generator: sketchtool 52.4 (67378) - http://www.bohemiancoding.com/sketch -->
    <title>E9F4A8B8-9B07-44FB-A868-17FE40F25B68</title>
    <desc>Created with sketchtool.</desc>
    <g id="Home-Page" stroke="none" stroke-width="1" fill="none" fill-rule="evenodd">
        <g id="T001_HomePage_State3_Desktop" transform="translate(-364.000000, -1952.000000)">
            <g id="explore-our-products" transform="translate(0.000000, 1702.000000)">
                <g id="products" transform="translate(42.000000, 87.000000)">
                    <g id="loan-against-property" transform="translate(235.000000, 145.000000)">
                        <g id="icon" transform="translate(87.000000, 17.000000)">
                            <rect id="Rectangle-15" x="0" y="0" width="60" height="60"></rect>
                            <g id="Group-29" transform="translate(0.000000, 9.800000)">
                                <path d="M0,27.4 L60,27.4" id="Line-7-Copy-2" stroke="#333333" stroke-width="2"></path>
                                <polygon id="Triangle-Copy-2" stroke="#333333" stroke-width="2" fill="#D7DF23" points="30 28.6 36 40.6 24 40.6"></polygon>
                                <g id="Group-19" transform="translate(34.800000, 0.000000)">
                                    <polygon id="Rectangle-13" points="0 0 24 0 24 24 0 24"></polygon>
                                    <g id="Group-12" transform="translate(0.000000, 0.960000)">
                                        <polygon id="Rectangle-10" fill="#FFFFFF" points="21.5941043 8.22030738 21.5941043 21.7596372 3 21.7596372 3 8.22030738 12.2970522 0 18.256701 5.31902242"></polygon>
                                        <polyline id="Rectangle-11-Copy" stroke="#333333" stroke-width="2" fill="#D7DF23" points="9.33333333 21.7777778 9.33333333 11.1111111 14.6666667 11.1111111 14.6666667 21.7777778"></polyline>
                                        <polyline id="Rectangle-11" stroke="#333333" stroke-width="2" fill="#D7DF23" points="17.7777778 5.03454715 17.7777778 1.77777778 21.3333333 1.77777778 21.3333333 8.44444444"></polyline>
                                        <polyline id="Rectangle-10" stroke="#333333" stroke-width="2" points="21.3333333 8.44444444 21.3333333 21.7777778 2.66666667 21.7777778 2.66666667 8.44444444"></polyline>
                                        <polyline id="Line" stroke="#333333" stroke-width="2" points="0 10.6666667 12 0 24 10.6666667"></polyline>
                                    </g>
                                </g>
                                <g id="Group-4-Copy-2" transform="translate(1.000000, 3.000000)" stroke="#333333" stroke-width="2">
                                    <circle id="Oval" fill="#D7DF23" cx="10" cy="10" r="10"></circle>
                                    <g id="Group-3" transform="translate(6.000000, 5.000000)">
                                        <path d="M6.0928,10.88 L1.7408,6.528 L2.9744378,6.528 C4.69666169,6.528 6.0928,5.16408026 6.0928,3.4816 C6.0928,1.79911974 4.69666169,0.4352 2.9744378,0.4352 L1.7408,0.4352" id="Oval-4"></path>
                                        <path d="M0.214492063,0.4352 L8.04809206,0.4352" id="Line-2"></path>
                                        <path d="M0.214492063,3.4816 L8.04809206,3.4816" id="Line-2-Copy"></path>
                                    </g>
                                </g>
                            </g>
                        </g>
                    </g>
                </g>
            </g>
        </g>
    </g>
</svg>