<?xml version="1.0" encoding="UTF-8"?>
<svg width="60px" height="60px" viewBox="0 0 60 60" version="1.1" xmlns="http://www.w3.org/2000/svg" xmlns:xlink="http://www.w3.org/1999/xlink">
    <!-- Generator: sketchtool 52.4 (67378) - http://www.bohemiancoding.com/sketch -->
    <title>E77FD8AE-CA07-4FB0-8888-DF69A8E68560</title>
    <desc>Created with sketchtool.</desc>
    <g id="Home-Page" stroke="none" stroke-width="1" fill="none" fill-rule="evenodd">
        <g id="T001_HomePage_State3_Desktop" transform="translate(-835.000000, -1952.000000)">
            <g id="explore-our-products" transform="translate(0.000000, 1702.000000)">
                <g id="products" transform="translate(42.000000, 87.000000)">
                    <g id="insurance-" transform="translate(705.000000, 145.000000)">
                        <g id="icon" transform="translate(88.000000, 17.000000)">
                            <rect id="Rectangle-3-Copy-3" x="5" y="0" width="50" height="50"></rect>
                            <g id="Group-72" transform="translate(9.000000, 11.000000)" stroke="#333333" stroke-width="2">
                                <path d="M0.142967641,18.6410493 C1.36608266,8.14556665 10.2873474,0 21.1111111,0 C31.9348748,0 40.8561396,8.14556665 42.0792546,18.6410493 C40.7562143,18.0850446 39.302879,17.7777778 37.7777778,17.7777778 C34.4591874,17.7777778 31.4804013,19.2326525 29.4444444,21.5393767 C27.4084876,19.2326525 24.4297015,17.7777778 21.1111111,17.7777778 C17.7925208,17.7777778 14.8137346,19.2326525 12.7777778,21.5393767 C10.741821,19.2326525 7.7630348,17.7777778 4.44444444,17.7777778 C2.91934319,17.7777778 1.46600795,18.0850446 0.142967641,18.6410493 Z" id="Combined-Shape" fill="#D7DF23"></path>
                                <path d="M12.2222222,33.3333333 L12.2222222,35.5555556 C12.2222222,38.0101544 14.2120678,40 16.6666667,40 C19.1212656,40 21.1111111,38.0101544 21.1111111,35.5555556 L21.1111111,18.8888889" id="Oval-2-Copy-6"></path>
                                <path d="M12.7777778,20.5555556 C12.5925926,17.2222222 13.1481481,13.8888889 14.4444444,10.5555556 C15.7407407,7.22222222 17.7777778,3.88888889 20.5555556,0.555555556" id="Line-21" stroke-linecap="square"></path>
                                <path d="M21.6666667,20.5555556 C21.4814815,17.2222222 22.037037,13.8888889 23.3333333,10.5555556 C24.6296296,7.22222222 26.6666667,3.88888889 29.4444444,0.555555556" id="Line-21" stroke-linecap="square" transform="translate(25.538194, 10.555556) scale(-1, 1) translate(-25.538194, -10.555556) "></path>
                            </g>
                        </g>
                    </g>
                </g>
            </g>
        </g>
    </g>
</svg>